<mxfile host="Electron" agent="Mozilla/5.0 (Windows NT 10.0; Win64; x64) AppleWebKit/537.36 (KHTML, like Gecko) draw.io/26.1.1 Chrome/132.0.6834.210 Electron/34.3.3 Safari/537.36" version="26.1.1">
  <diagram name="Page-1" id="cJSHh3uCTqWtgZ_0wZ8F">
    <mxGraphModel dx="1430" dy="826" grid="1" gridSize="10" guides="1" tooltips="1" connect="1" arrows="1" fold="1" page="1" pageScale="1" pageWidth="850" pageHeight="1100" math="0" shadow="0">
      <root>
        <mxCell id="0" />
        <mxCell id="1" parent="0" />
        <mxCell id="erVdIc6Z01EvermfQYhK-1" value="" style="ellipse;html=1;strokeWidth=4;fillColor=#10739E;strokeColor=#ffffff;shadow=0;fontSize=10;fontColor=#FFFFFF;align=center;fontStyle=0;whiteSpace=wrap;spacing=10;" parent="1" vertex="1">
          <mxGeometry x="238" y="220" width="350" height="350" as="geometry" />
        </mxCell>
        <mxCell id="erVdIc6Z01EvermfQYhK-2" value="" style="ellipse;html=1;strokeWidth=4;fillColor=#F2931E;strokeColor=#ffffff;shadow=0;fontSize=10;fontColor=#FFFFFF;align=center;fontStyle=0;whiteSpace=wrap;spacing=10;" parent="1" vertex="1">
          <mxGeometry x="278" y="290" width="270" height="280" as="geometry" />
        </mxCell>
        <mxCell id="erVdIc6Z01EvermfQYhK-3" value="" style="ellipse;html=1;strokeWidth=4;fillColor=#AE4132;strokeColor=#ffffff;shadow=0;fontSize=10;fontColor=#FFFFFF;align=center;fontStyle=0;whiteSpace=wrap;spacing=10;" parent="1" vertex="1">
          <mxGeometry x="323" y="390" width="180" height="180" as="geometry" />
        </mxCell>
        <mxCell id="erVdIc6Z01EvermfQYhK-4" value="" style="ellipse;html=1;strokeWidth=4;fillColor=#23445D;strokeColor=#ffffff;shadow=0;fontSize=10;fontColor=#FFFFFF;align=center;fontStyle=0;whiteSpace=wrap;spacing=10;" parent="1" vertex="1">
          <mxGeometry x="488" y="380" width="152" height="100" as="geometry" />
        </mxCell>
        <mxCell id="erVdIc6Z01EvermfQYhK-5" value="Web" style="text;strokeColor=none;fillColor=none;html=1;fontSize=24;fontStyle=1;verticalAlign=middle;align=center;" parent="1" vertex="1">
          <mxGeometry x="363" y="240" width="100" height="40" as="geometry" />
        </mxCell>
        <mxCell id="erVdIc6Z01EvermfQYhK-6" value="Application" style="text;strokeColor=none;fillColor=none;html=1;fontSize=24;fontStyle=1;verticalAlign=middle;align=center;" parent="1" vertex="1">
          <mxGeometry x="363" y="330" width="100" height="40" as="geometry" />
        </mxCell>
        <mxCell id="erVdIc6Z01EvermfQYhK-7" value="Domain" style="text;strokeColor=none;fillColor=none;html=1;fontSize=19;fontStyle=1;verticalAlign=middle;align=center;" parent="1" vertex="1">
          <mxGeometry x="363" y="420" width="100" height="40" as="geometry" />
        </mxCell>
        <mxCell id="erVdIc6Z01EvermfQYhK-8" value="Infrastructure" style="text;strokeColor=none;fillColor=none;html=1;fontSize=19;fontStyle=1;verticalAlign=middle;align=center;" parent="1" vertex="1">
          <mxGeometry x="518" y="415" width="95" height="30" as="geometry" />
        </mxCell>
        <mxCell id="b9dJBXZOdKN90qPYoUXV-1" value="Domain =&amp;gt; core state" style="text;strokeColor=none;fillColor=none;html=1;fontSize=19;fontStyle=1;verticalAlign=middle;align=center;" parent="1" vertex="1">
          <mxGeometry x="288" y="580" width="95" height="30" as="geometry" />
        </mxCell>
        <mxCell id="b9dJBXZOdKN90qPYoUXV-2" value="Infrastructure =&amp;gt; repository access" style="text;strokeColor=none;fillColor=none;html=1;fontSize=19;fontStyle=1;verticalAlign=middle;align=center;" parent="1" vertex="1">
          <mxGeometry x="348" y="610" width="100" height="40" as="geometry" />
        </mxCell>
        <mxCell id="b9dJBXZOdKN90qPYoUXV-3" value="Application =&amp;gt; business rules" style="text;strokeColor=none;fillColor=none;html=1;fontSize=24;fontStyle=1;verticalAlign=middle;align=center;" parent="1" vertex="1">
          <mxGeometry x="358" y="650" width="100" height="40" as="geometry" />
        </mxCell>
        <mxCell id="b9dJBXZOdKN90qPYoUXV-4" value="Web =&amp;gt; outside access&lt;div&gt;&lt;br&gt;&lt;/div&gt;" style="text;strokeColor=none;fillColor=none;html=1;fontSize=24;fontStyle=1;verticalAlign=middle;align=center;" parent="1" vertex="1">
          <mxGeometry x="318" y="710" width="100" height="40" as="geometry" />
        </mxCell>
        <mxCell id="5miAOxHwrwePJfYum5XE-1" value="&lt;div&gt;BlogLab.Backend&lt;/div&gt;" style="text;strokeColor=none;fillColor=none;html=1;fontSize=24;fontStyle=1;verticalAlign=middle;align=center;" vertex="1" parent="1">
          <mxGeometry x="363" y="170" width="100" height="40" as="geometry" />
        </mxCell>
      </root>
    </mxGraphModel>
  </diagram>
</mxfile>
